<?xml version="1.0" standalone="no"?>
<!DOCTYPE svg PUBLIC "-//W3C//DTD SVG 1.1//EN" "http://www.w3.org/Graphics/SVG/1.1/DTD/svg11.dtd" >
<svg xmlns="http://www.w3.org/2000/svg">
<metadata>Generated by IcoMoon</metadata>
<defs>
<font id="icomoon" horiz-adv-x="1024">
<font-face units-per-em="1024" ascent="960" descent="-64" />
<missing-glyph horiz-adv-x="1024" />
<glyph unicode="&#x20;" horiz-adv-x="512" d="" />
<glyph unicode="&#xe900;" glyph-name="youtube1" d="M920.021 655.488c12.245-65.237 19.115-140.587 18.645-218.667 0.811-65.195-5.248-139.392-18.645-214.229-2.432-8.875-6.4-17.195-11.605-24.533-9.685-13.696-23.808-24.107-40.491-28.8-25.771-6.869-91.989-11.733-165.419-14.549-95.147-3.669-190.507-3.669-190.507-3.669s-95.36 0-190.507 3.627c-73.429 2.816-139.648 7.637-164.949 14.421-8.747 2.432-16.896 6.315-24.149 11.435-13.269 9.387-23.509 22.869-28.587 39.381-12.16 65.109-18.944 140.203-18.475 218.027-0.896 65.707 5.163 140.459 18.645 215.893 2.432 8.875 6.4 17.195 11.605 24.533 9.685 13.696 23.808 24.107 40.491 28.8 25.771 6.869 91.989 11.733 165.419 14.549 95.147 3.627 190.507 3.627 190.507 3.627s95.36 0 190.549-3.328c73.344-2.56 140.032-6.955 164.523-12.928 9.344-2.688 17.963-7.040 25.515-12.757 13.099-9.899 22.955-23.936 27.435-40.875zM1003.093 675.115c-9.259 36.949-30.635 67.84-59.008 89.301-15.915 12.032-33.963 21.077-53.291 26.667-38.315 9.387-115.029 13.781-185.259 16.213-96.725 3.371-193.536 3.371-193.536 3.371s-96.939 0-193.749-3.712c-70.059-2.688-147.2-7.467-184.192-17.365-37.291-10.539-67.456-32.853-88.064-61.867-11.52-16.256-20.011-34.603-25.045-54.101-0.256-1.024-0.469-2.091-0.64-3.029-14.635-80.981-21.291-161.835-20.309-233.856-0.512-82.091 6.869-163.456 20.352-234.752 0.256-1.323 0.555-2.645 0.896-3.755 10.453-36.693 32.853-66.859 61.909-87.381 15.232-10.752 32.299-18.859 50.389-23.936 37.504-10.027 114.603-14.805 184.661-17.493 96.853-3.712 193.792-3.712 193.792-3.712s96.939 0 193.749 3.712c70.059 2.688 147.157 7.467 184.192 17.365 37.248 10.539 67.456 32.853 88.021 61.867 11.52 16.256 20.053 34.603 25.045 54.059 0.256 1.067 0.512 2.133 0.64 3.029 14.507 80.384 21.163 160.64 20.309 232.107 0.512 82.133-6.869 163.541-20.352 234.837-0.171 0.853-0.341 1.707-0.512 2.432zM458.667 371.158v132.352l116.352-66.176zM437.077 260.736l245.333 139.52c20.48 11.648 27.648 37.717 16 58.197-3.968 6.997-9.643 12.459-16 16l-245.333 139.52c-20.48 11.648-46.549 4.48-58.197-16-3.84-6.741-5.632-14.080-5.589-21.077v-279.040c0-23.552 19.115-42.667 42.667-42.667 7.765 0 15.019 2.091 21.077 5.589z" />
<glyph unicode="&#xe901;" glyph-name="arrow-top01" horiz-adv-x="1664" d="M1648-63.992h-1648.288l815.904 1021.952 832.384-1021.952z" />
<glyph unicode="&#xe902;" glyph-name="lang" d="M511.719 953.267c-278.896 0-504.986-226.090-504.986-504.986s226.090-504.986 504.986-504.986c278.896 0 504.986 226.090 504.986 504.986v0c0 278.896-226.090 504.986-504.986 504.986v0zM948.813 270.974l-143.641-24.688c15.542 55.027 25.086 118.425 26.36 183.849l0.012 0.751h151.496c-2.319-58.146-14.679-112.776-35.385-163.091l1.158 3.178zM40.96 430.887h151.496c1.285-66.176 10.829-129.574 27.642-189.943l-1.27 5.343-143.641 24.688c-19.548 47.137-31.908 101.767-34.197 158.988l-0.029 0.925zM75.187 623.342l143.641 26.372c-15.542-55.027-25.086-118.425-26.36-183.849l-0.012-0.751h-151.496c2.529 57.589 14.87 111.612 35.385 161.405l-1.159-3.176zM528.552 679.452c64.255-0.594 126.673-6.693 187.322-17.848l-6.649 1.015 59.476-10.1c17.485-56.882 28.069-122.379 29.169-190.181l0.008-0.591h-269.326zM714.836 696.285c-55.23 9.574-119.575 15.65-185.118 16.817l-1.166 0.016v205.361c96.508-9.539 180.673-97.631 228.366-224.438zM494.887 713.118c-66.533-1.21-130.68-7.285-193.286-17.892l7.563 1.059-42.082-7.294c47.693 131.858 131.858 219.95 227.805 229.488zM314.775 662.619c53.815 10.112 116.034 16.21 179.564 16.829l0.548 0.004v-214.339h-270.448c1.107 68.392 11.692 133.889 30.492 195.811l-1.315-5.038zM224.438 430.887h270.448v-217.705c-64.451 1.134-126.612 7.415-187.112 18.454l7.001-1.060-59.476 10.1c-17.943 56.553-29.099 121.752-30.842 189.293l-0.019 0.919zM307.481 196.348c55.289-9.846 119.454-15.933 184.875-16.824l0.848-0.009v-201.995c-95.947 9.539-180.112 97.631-227.805 224.438zM526.869 179.516c66.445 0.873 130.809 6.961 193.515 17.875l-7.231-1.042 42.082 7.294c-47.693-128.491-131.858-217.144-228.366-224.438zM707.542 230.014c-53.796-9.847-116.194-15.933-179.848-16.824l-0.825-0.009v217.705h269.326c-1.107-68.392-11.692-133.889-30.492-195.811l1.315 5.038zM829.861 465.113c-1.285 66.176-10.829 129.574-27.642 189.943l1.27-5.343 145.324-26.372c19.548-47.137 31.908-101.767 34.197-158.988l0.029-0.925zM930.297 662.058l-138.030 23.566c-26.234 83.465-72.446 154.319-133.157 209.506l-0.384 0.344c118.896-40.831 214.321-123.863 270.32-230.794l1.25-2.622zM363.59 895.474c-61.292-55.387-107.553-126.296-132.653-206.555l-0.888-3.295-138.030-23.566c57.249 109.553 152.674 192.584 268.221 232.412l3.349 1.004zM92.020 233.942l138.030-23.566c25.988-83.554 72.248-154.463 133.136-209.49l0.405-0.36c-118.983 40.67-214.462 123.753-270.325 230.793l-1.246 2.622zM660.41 0.526c61.095 55.531 107.307 126.385 132.633 206.52l0.908 3.33 138.030 23.566c-57.108-109.663-152.587-192.746-268.231-232.42l-3.339-0.996z" />
<glyph unicode="&#xe903;" glyph-name="lock" horiz-adv-x="803" d="M682.667 539.591h-30.151v170.667c0 139.186-112.832 252.018-252.018 252.018s-252.018-112.832-252.018-252.018v0-170.667h-29.013c-65.98 0-119.467-53.487-119.467-119.467v-364.658c0-65.98 53.487-119.467 119.467-119.467v0h563.2c65.98 0 119.467 53.487 119.467 119.467v0 364.658c0 65.98-53.487 119.467-119.467 119.467v0zM220.16 710.258c0 99.598 80.74 180.338 180.338 180.338s180.338-80.74 180.338-180.338v0-170.667h-359.538zM732.16 58.311c0-0.001 0-0.002 0-0.003 0-26.506-21.326-48.031-47.756-48.352h-564.937c-26.46 0.321-47.787 21.846-47.787 48.352 0 0.001 0 0.002 0 0.004v0 361.813c0.317 26.263 21.523 47.47 47.757 47.786h563.23c26.263-0.317 47.47-21.523 47.786-47.757v-364.119zM401.636 317.724c-19.794 0-35.84-16.046-35.84-35.84v0-92.16c0-19.794 16.046-35.84 35.84-35.84s35.84 16.046 35.84 35.84v0 92.16c0 19.794-16.046 35.84-35.84 35.84v0z" />
<glyph unicode="&#xe904;" glyph-name="cart02" horiz-adv-x="1106" d="M464.213 130.56c-53.726 0-97.28-43.554-97.28-97.28s43.554-97.28 97.28-97.28c53.726 0 97.28 43.554 97.28 97.28v0c0 53.726-43.554 97.28-97.28 97.28v0zM464.213-9.387c-0.169-0.002-0.369-0.004-0.569-0.004-23.564 0-42.667 19.103-42.667 42.667 0 0.001 0 0.003 0 0.004v0c-0.181 1.486-0.284 3.207-0.284 4.951 0 23.878 19.357 43.236 43.236 43.236s43.236-19.357 43.236-43.236c0-1.745-0.103-3.465-0.304-5.156l0.020 0.205c0-23.564-19.103-42.667-42.667-42.667v0zM805.547 130.56c-53.726 0-97.28-43.554-97.28-97.28s43.554-97.28 97.28-97.28c53.726 0 97.28 43.554 97.28 97.28v0c0 53.726-43.554 97.28-97.28 97.28v0zM805.547-9.387c-0.169-0.002-0.369-0.004-0.569-0.004-23.564 0-42.667 19.103-42.667 42.667 0 0.001 0 0.003 0 0.004v0c0 23.878 19.357 43.236 43.236 43.236v0c21.652-2.568 38.284-20.817 38.284-42.951s-16.632-40.383-38.080-42.931l-0.205-0.020zM829.44 643.129h-389.689c-0.002 0-0.004 0-0.006 0-14.767 0-26.738-11.971-26.738-26.738 0-0.2 0.002-0.4 0.007-0.599l-0.001 0.030c0-0.002 0-0.004 0-0.006 0-14.881 11.903-26.982 26.708-27.3l0.030-0.001h389.689c14.834 0.319 26.738 12.42 26.738 27.301 0 0.002 0 0.004 0 0.006v0c0.004 0.169 0.006 0.369 0.006 0.569 0 14.767-11.971 26.738-26.738 26.738-0.002 0-0.004 0-0.006 0v0zM808.391 502.044h-347.022c-15.709 0-28.444-12.735-28.444-28.444s12.735-28.444 28.444-28.444v0h347.022c15.709 0 28.444 12.735 28.444 28.444s-12.735 28.444-28.444 28.444v0zM1094.542 764.302c-10.254 11.943-25.253 19.562-42.038 19.91l-0.060 0.001h-846.507l-17.067 83.058c-4.509 16.454-16.249 29.501-31.5 35.711l-0.358 0.129-118.898 56.889c-3.194 1.356-6.91 2.144-10.809 2.144-15.637 0-28.313-12.676-28.313-28.313 0-11.738 7.143-21.807 17.318-26.099l0.186-0.070 118.898-51.769 131.413-635.449c5.969-24.7 27.475-42.911 53.38-43.802l0.096-0.003h650.809c15.709 0 28.444 12.735 28.444 28.444s-12.735 28.444-28.444 28.444v0h-650.809l-15.929 77.369h671.858c26 0.894 47.507 19.104 53.396 43.416l0.080 0.389 75.662 368.64c0.655 3.239 1.029 6.962 1.029 10.772 0 13.139-4.454 25.237-11.934 34.867l0.096-0.129zM976.213 360.96h-682.667l-76.231 368.64h835.129z" />
<glyph unicode="&#xe905;" glyph-name="person" horiz-adv-x="939" d="M469.333 362.098c-1.021-0.012-2.226-0.020-3.432-0.020-165.641 0-300.144 133.318-302.059 298.505l-0.002 0.181c1.92 165.68 136.677 299.249 302.63 299.249 1.007 0 2.012-0.005 3.017-0.015l-0.153 0.001c0.851 0.009 1.857 0.014 2.864 0.014 165.953 0 300.709-133.569 302.628-299.068l0.002-0.181c-1.917-165.368-136.42-298.686-302.061-298.686-1.207 0-2.412 0.007-3.615 0.021l0.183-0.002zM469.333 893.44c-0.68 0.007-1.483 0.011-2.286 0.011-128.964 0-233.659-103.904-234.939-232.565l-0.001-0.121c6.371-126.231 110.27-226.168 237.511-226.168s231.141 99.937 237.488 225.601l0.023 0.567c-1.6 128.85-106.425 232.687-235.503 232.687-0.806 0-1.611-0.004-2.416-0.012l0.123 0.001zM938.667-64h-938.667v33.564c3.198 254.243 210.048 459.116 464.748 459.116 1.612 0 3.223-0.008 4.831-0.025l-0.245 0.002c1.363 0.014 2.973 0.023 4.586 0.023 254.7 0 461.549-204.873 464.745-458.814l0.003-0.302zM69.404 2.56h799.858c-20.361 202.652-190.028 359.542-396.339 359.542-0.662 0-1.324-0.002-1.985-0.005h0.102c-0.559 0.003-1.221 0.004-1.883 0.004-206.311 0-375.978-156.89-396.203-357.87l-0.136-1.672z" />
<glyph unicode="&#xe906;" glyph-name="arrow-bottom02" horiz-adv-x="1856" d="M1334.997 631.076l-406.36-407.076-406.361 407.076 40.924 40.924 365.437-365.437 365.437 365.437 40.924-40.924z" />
<glyph unicode="&#xe907;" glyph-name="search02" d="M424.053 112.455c-0.166 0-0.363 0-0.56 0-234.198 0-424.053 189.855-424.053 424.053s189.855 424.053 424.053 424.053c234.198 0 424.053-189.855 424.053-424.053 0-0.197 0-0.394 0-0.591v0.031c-0.318-233.76-189.732-423.174-423.461-423.492h-0.031zM424.053 903.982c-203.879 0-369.155-165.276-369.155-369.155s165.276-369.155 369.155-369.155c203.879 0 369.155 165.276 369.155 369.155v0c0 203.879-165.276 369.155-369.155 369.155v0zM689.142 232.226l38.422 38.422 296.285-296.285-38.422-38.422-296.285 296.285z" />
<glyph unicode="&#xe908;" glyph-name="maker" horiz-adv-x="1036" d="M268.268 651.382c0.028 0.994 0.043 2.165 0.043 3.339 0 62.599-44.699 114.759-103.921 126.302l-0.812 0.132v178.846h-61.614v-178.846c-58.701-12.754-102.022-64.263-102.022-125.89 0-1.365 0.021-2.726 0.063-4.080l-0.005 0.198c-0.007-0.509-0.011-1.11-0.011-1.711 0-61.61 43.298-113.108 101.125-125.724l0.85-0.156v-587.791h61.614v587.791c60.016 11.69 104.695 63.84 104.695 126.426 0 0.41-0.002 0.819-0.006 1.227v-0.062zM130.317 581.589c-38.311 0.309-69.248 31.437-69.248 69.791 0 38.546 31.248 69.793 69.793 69.793s69.792-31.246 69.793-69.791v0c0-0.001 0-0.001 0-0.002 0-38.546-31.248-69.793-69.793-69.793-0.192 0-0.383 0.001-0.575 0.002h0.029zM654.313 235.348c0.037 1.157 0.059 2.517 0.059 3.882 0 61.627-43.322 113.136-101.173 125.735l-0.85 0.155v594.88h-66.522v-594.88c-59.769-11.895-104.191-63.924-104.191-126.33 0-1.211 0.017-2.417 0.050-3.62l-0.004 0.177c-0.037-1.157-0.059-2.517-0.059-3.882 0-61.627 43.322-113.136 101.173-125.735l0.85-0.155v-169.576h64.341v169.576c60.827 11.003 106.362 63.55 106.362 126.731 0 1.069-0.013 2.135-0.039 3.199l0.003-0.158zM514.181 165.555c-38.846 0.001-70.337 31.492-70.337 70.339s31.492 70.339 70.339 70.339c38.847 0 70.339-31.492 70.339-70.339 0-0.192-0.001-0.383-0.002-0.575v0.029c0-0.001 0-0.001 0-0.002 0-38.546-31.248-69.793-69.793-69.793-0.192 0-0.383 0.001-0.575 0.002h0.029zM1035.996 491.621c0.045 1.258 0.070 2.737 0.070 4.222 0 61.42-43.398 112.703-101.202 124.859l-0.831 0.146v339.152h-61.614v-339.152c-58.902-12.087-102.575-63.501-102.575-125.115 0-1.446 0.024-2.887 0.072-4.321l-0.006 0.209c-0.098-1.874-0.154-4.068-0.154-6.276 0-61.645 43.718-113.080 101.841-124.991l0.823-0.141v-425.849h63.796v425.849c57.634 13.331 99.943 64.223 99.943 124.996 0 2.255-0.058 4.497-0.173 6.723l0.013-0.312zM898.59 421.282c-0.162-0.001-0.354-0.002-0.545-0.002-38.847 0-70.339 31.492-70.339 70.339s31.492 70.339 70.339 70.339c38.846 0 70.337-31.49 70.339-70.336v0c0-0.001 0-0.001 0-0.002 0-38.655-31.182-70.028-69.764-70.336h-0.029z" />
<glyph unicode="&#xe909;" glyph-name="model" horiz-adv-x="1224" d="M779.13 786.922h-723.478c-30.736 0-55.652 24.916-55.652 55.652s24.916 55.652 55.652 55.652v0h723.478c30.736 0 55.652-24.916 55.652-55.652s-24.916-55.652-55.652-55.652v0zM1224.348 871.513c0.001-0.165 0.002-0.36 0.002-0.555 0-49.177-39.866-89.043-89.043-89.043s-89.043 39.866-89.043 89.043c0 49.177 39.866 89.043 89.043 89.043 0.195 0 0.39-0.001 0.585-0.002h-0.030c48.743-0.313 88.174-39.744 88.487-88.457v-0.030zM779.13 341.704h-723.478c-30.736 0-55.652 24.916-55.652 55.652s24.916 55.652 55.652 55.652v0h723.478c30.736 0 55.652-24.916 55.652-55.652s-24.916-55.652-55.652-55.652v0zM1224.348 465.809c0.001-0.165 0.002-0.36 0.002-0.555 0-49.177-39.866-89.043-89.043-89.043s-89.043 39.866-89.043 89.043c0 49.177 39.866 89.043 89.043 89.043 0.195 0 0.39-0.001 0.585-0.002h-0.030c48.743-0.313 88.174-39.744 88.487-88.457v-0.030zM779.13-47.861h-723.478c-30.736 0-55.652 24.916-55.652 55.652s24.916 55.652 55.652 55.652v0h723.478c30.736 0 55.652-24.916 55.652-55.652s-24.916-55.652-55.652-55.652v0zM1224.348 25.043c0.001-0.165 0.002-0.36 0.002-0.555 0-49.177-39.866-89.043-89.043-89.043s-89.043 39.866-89.043 89.043c0 49.177 39.866 89.043 89.043 89.043 0.195 0 0.39-0.001 0.585-0.002h-0.030c48.743-0.313 88.174-39.744 88.487-88.457v-0.030z" />
<glyph unicode="&#xe90a;" glyph-name="year" horiz-adv-x="1015" d="M1015.093-64h-1015.093v923.168h1015.093zM43.112-20.888h928.512v838.369h-928.512zM239.432 627.93h104.395v-104.395h-104.395v104.395zM455.349 627.93h104.395v-104.395h-104.395v104.395zM671.265 627.93h104.395v-104.395h-104.395v104.395zM239.432 449.781h104.395v-104.395h-104.395v104.395zM455.349 449.781h104.395v-104.395h-104.395v104.395zM671.265 449.781h104.395v-104.395h-104.395v104.395zM239.432 271.633h104.395v-104.395h-104.395v104.395zM455.349 271.633h104.395v-104.395h-104.395v104.395zM671.265 271.633h104.395v-104.395h-104.395v104.395zM225.537 960h82.661v-199.883h-82.661v199.883zM706.895 960h82.661v-199.883h-82.661v199.883z" />
<glyph unicode="&#xe90b;" glyph-name="part" d="M512 244.382c-112.455 0-203.618 91.163-203.618 203.618s91.163 203.618 203.618 203.618c112.455 0 203.618-91.163 203.618-203.618v0c-0.224-112.365-91.253-203.395-203.597-203.618h-0.021zM512 605.538c-87.006 0-157.538-70.532-157.538-157.538s70.532-157.538 157.538-157.538c87.006 0 157.538 70.532 157.538 157.538v0c0 87.006-70.532 157.538-157.538 157.538v0zM512-64c-33.132 0.196-65.371 3.484-96.602 9.59l3.261-0.531-20.48 3.545 3.151 25.994c0 2.363 0 4.726 0 7.089 0.013 0.653 0.021 1.422 0.021 2.194 0 63.297-51.312 114.609-114.609 114.609-32.297 0-61.474-13.359-82.306-34.853l-0.029-0.030-14.966-14.572-15.754 13.391c-32.040 28.221-60.183 59.615-84.338 94.013l-1.126 1.692-9.452 17.329 20.086 16.148c2.206 1.563 4.132 3.114 5.959 4.772l-0.052-0.046c20.795 20.749 33.66 49.438 33.66 81.132s-12.865 60.383-33.658 81.13l-0.002 0.002c-20.175 20.336-47.909 33.148-78.634 33.868l-0.135 0.003h-22.843v26.388c0 9.846 0 19.298 0 29.145 0 0.154 0 0.336 0 0.519 0 32.843 3.298 64.915 9.58 95.905l-0.522-3.082 3.545 20.48 25.6-2.757h7.483c61.885 1.748 111.437 52.127 111.852 114.175v0.040c-0.478 30.833-13.185 58.608-33.471 78.763l-14.578 14.578 13.785 15.754c28.122 33.083 59.542 62.002 94.141 86.764l1.564 1.064 17.329 11.028 16.148-20.48c1.413-2.074 2.97-3.881 4.707-5.496l0.020-0.018c21.115-19.977 49.689-32.259 81.132-32.259s60.018 12.282 81.187 32.311l-0.055-0.052c20.43 20.073 33.182 47.904 33.477 78.714v23.292h26.782c9.524 0.672 20.638 1.055 31.842 1.055 31.92 0 63.115-3.108 93.298-9.037l-3.048 0.499 20.48-3.938-2.363-25.206c-0.093-1.062-0.145-2.297-0.145-3.545s0.053-2.483 0.156-3.704l-0.011 0.159c-0.004-0.36-0.006-0.786-0.006-1.212 0-63.514 51.489-115.003 115.003-115.003 32.060 0 61.056 13.119 81.913 34.281l14.586 14.586 15.754-13.391c32.283-28.262 60.566-59.797 84.743-94.412l1.115-1.686 11.815-16.935-20.48-16.148-5.514-4.726c-21.182-20.871-34.305-49.871-34.305-81.936 0-62.836 50.395-113.902 112.973-114.986l0.102-0.001h20.874v-26.388q0-14.966 0-29.538c-0.066-33.044-3.216-65.309-9.178-96.577l0.513 3.235-3.938-20.48-24.418 5.12h-7.089c-0.653 0.013-1.422 0.021-2.194 0.021-63.297 0-114.609-51.312-114.609-114.609 0-32.297 13.359-61.474 34.853-82.306l0.030-0.029 14.572-14.966-13.785-15.754c-28.13-32.154-59.538-60.311-94.026-84.356l-1.679-1.108-16.935-11.815-16.148 20.086-4.726 5.908c-21.138 20.089-49.791 32.446-81.329 32.446s-60.191-12.357-81.38-32.493l0.051 0.048c-20.225-20.204-32.91-47.952-33.475-78.662l-0.002-0.107v-20.874h-27.175c-9.452 0-18.905 0-28.751 0zM445.44-11.618c18.040-3.053 38.823-4.798 60.013-4.798 6.597 0 13.155 0.169 19.669 0.503l-0.913-0.037c5.031 35.726 21.395 66.941 45.278 90.571l0.014 0.014c29.317 28.157 69.207 45.496 113.148 45.496 42.316 0 80.876-16.081 109.903-42.465l-0.134 0.12c21.486 16.315 40.525 33.356 58.108 51.796l0.181 0.191c-21.339 26.646-34.246 60.849-34.246 98.068 0 87 70.522 157.528 157.519 157.538h0.001c3.235 18.646 5.229 40.29 5.511 62.347l0.003 0.275c0 4.332 0 8.271 0 12.603-78.306 11.011-137.897 77.565-137.897 158.037 0 42.76 16.826 81.591 44.218 110.232l-0.057-0.059c-16.293 21.362-33.465 40.283-52.109 57.644l-0.273 0.251c-26.472-19.895-59.884-31.871-96.091-31.902h-0.007c-85.887 1.067-155.361 69.853-157.534 155.366l-0.004 0.203c-19.157 3.184-41.232 5.003-63.731 5.003-5.288 0-10.553-0.101-15.793-0.3l0.755 0.023c-4.943-35.873-21.323-67.238-45.28-90.966l-0.013-0.012c-29.394-27.977-69.258-45.189-113.142-45.189-42.459 0-81.154 16.112-110.306 42.555l0.137-0.123c-21.819-16.322-41.115-33.369-58.94-51.845l-0.137-0.143c19.913-26.1 31.905-59.175 31.905-95.051 0-0.368-0.001-0.737-0.004-1.104v0.056c0-0.014 0-0.032 0-0.049 0-86.709-69.186-157.258-155.365-159.455l-0.204-0.004c-2.972-19.736-4.689-42.537-4.726-65.732v-0.040c0-3.938 0-8.271 0-12.209 35.726-5.031 66.941-21.395 90.571-45.278l0.014-0.014c28.913-28.873 46.799-68.783 46.799-112.869 0-42.7-16.778-81.481-44.101-110.11l0.059 0.062c16.43-21.498 33.73-40.546 52.501-58.037l0.274-0.252c26.646 21.34 60.85 34.246 98.068 34.246 87.006 0 157.538-70.532 157.538-157.538 0-0.132 0-0.264 0-0.396v0.020z" />
<glyph unicode="&#xe90c;" glyph-name="mail" horiz-adv-x="1346" d="M1181.371 960h-1015.297c-0.431 0.004-0.94 0.006-1.45 0.006-90.919 0-164.623-73.704-164.623-164.623 0-0.002 0-0.004 0-0.007v0-694.754c0-90.919 73.704-164.623 164.623-164.623h1015.297c90.836 0.206 164.417 73.787 164.623 164.603v694.774c0 0.002 0 0.004 0 0.006 0 90.409-72.88 163.796-163.095 164.616l-0.078 0.001zM1269.122 100.623c0 0 0 0 0-0.001 0-49.337-39.893-89.357-89.181-89.563h-1015.317c-49.382 0.205-89.359 40.182-89.564 89.544v694.774c0.206 49.309 40.226 89.201 89.563 89.201 0 0 0.001 0 0.001 0h1015.297c49.264 0 89.201-39.937 89.201-89.201v0-694.754zM848.499 456.703l329.246 295.161c7.635 6.911 12.411 16.858 12.411 27.921 0 20.773-16.839 37.612-37.612 37.612-9.71 0-18.56-3.679-25.233-9.72l0.032 0.029-453.983-407.207-88.476 79.048-4.714 6.164-362.606 322.357c-6.51 6.276-15.38 10.142-25.152 10.142-11.332 0-21.45-5.198-28.099-13.34l-0.052-0.065c-6.159-6.486-9.947-15.275-9.947-24.949 0-11.244 5.117-21.292 13.15-27.943l0.061-0.049 333.235-299.513-331.422-308.578c-7.188-6.646-11.673-16.125-11.673-26.652s4.485-20.005 11.649-26.629l0.024-0.022c7.032-7.175 16.742-11.704 27.509-11.965l0.049-0.001c9.466 0.643 17.846 4.828 23.917 11.225l0.015 0.016 336.499 314.742 91.377-81.586c6.661-5.815 15.42-9.377 25.009-9.428h0.011c0.070 0 0.154-0.001 0.237-0.001 9.594 0 18.317 3.726 24.803 9.809l-0.020-0.018 93.915 84.125 334.686-317.643c6.512-6.285 15.388-10.158 25.169-10.158 0.203 0 0.405 0.002 0.607 0.005h-0.030c0.18-0.003 0.392-0.005 0.604-0.005 10.495 0 19.949 4.459 26.571 11.586l0.021 0.023c7.188 6.646 11.673 16.125 11.673 26.652s-4.485 20.005-11.649 26.629l-0.024 0.022z" />
<glyph unicode="&#xe90d;" glyph-name="facebook" horiz-adv-x="478" d="M272.581-64v513.822h169.088l26.602 169.816h-195.69v85.273c0 44.458 14.577 86.73 77.984 86.73h127.18v168.359h-180.384c-151.596 0-193.139-100.214-193.139-238.69v-102.764h-104.222v-168.723h104.222v-513.822z" />
<glyph unicode="&#xe90e;" glyph-name="line" d="M142.929-60.743c-65.42 16.201-119.748 69.814-136.184 134.391-5.367 21.087-6.201 70.66-6.201 368.394 0 216.908 1.507 352.159 4.079 366.031 13.458 72.607 73.174 135.415 142.962 150.366 14.573 3.122 127.936 4.517 363.614 4.476 376.56-0.067 370.319 0.309 416.881-25.082 25.794-14.066 56.387-44.878 72.454-72.973 23.18-40.532 22.924-35.935 22.924-411.156 0-216.908-1.507-352.158-4.078-366.031-13.458-72.607-73.174-135.415-142.962-150.366-14.64-3.136-127.468-4.431-365.611-4.195-282.993 0.282-348.618 1.376-367.876 6.145zM531.080 97.949c96.119 49.783 236.302 159.387 288.082 225.241 49.077 62.416 66.579 112.581 63.453 181.866-3.118 69.090-25.869 120.574-76.926 174.081-149.945 157.14-434.698 157.97-585.378 1.706-51.311-53.213-74.943-105.424-78.838-174.181-6.412-113.198 59.17-214.209 177.747-273.77 33.298-16.726 51.149-22.309 136.84-42.796 30.157-7.21 31.716-11.547 25.998-72.337l-3.172-33.727h12.662c6.964 0 24.754 6.263 39.533 13.918zM276.391 402.635c-2.436 4.658-4.136 39.94-4.136 85.85 0 72.492 0.559 78.515 7.992 86.119 9.62 9.842 11.657 10.002 23.085 1.812 8.583-6.151 8.881-8.687 8.881-75.63v-69.266h31.167c32.884 0 40.757-3.554 40.757-18.397 0-16.044-7.236-18.397-56.599-18.397-42.387 0-47.416 0.777-51.146 7.907zM408.91 399.633c-3.414 3.493-4.795 28.778-4.795 87.8v82.894l9.721 6.517c11.871 7.958 24.92 2.522 28.446-11.851 1.265-5.156 1.736-43.806 1.046-85.888-1.025-62.58-2.345-77.218-7.247-80.383-8.331-5.379-21.453-4.939-27.171 0.911zM476.837 399.633c-3.414 3.493-4.795 28.778-4.795 87.8v82.894l9.775 6.553c6.084 4.079 12.013 5.271 15.704 3.158 3.261-1.867 23.586-27.309 45.167-56.538l39.238-53.143 1.077 51.101c0.888 42.132 2.249 51.998 7.756 56.211 8.898 6.808 15.267 6.441 22.847-1.314 8.962-9.169 9.42-169.785 0.505-177.354-13.226-11.23-23.642-2.983-61.721 48.871-20.64 28.106-39.070 51.715-40.957 52.464s-3.43-20.498-3.43-47.218c0-51.010-2.273-58.392-17.981-58.392-4.615 0-10.549 2.208-13.186 4.906zM652.65 399.633c-3.414 3.492-4.795 28.747-4.795 87.663 0 100.27-2.803 95.485 55.941 95.485 40.861 0 55.941-5.494 55.941-20.38 0-15.265-10.788-20.501-42.241-20.501h-29.683v-36.793h31.167c31.989 0 40.757-3.631 40.757-16.878 0-14.667-11.131-19.915-42.241-19.915h-29.683v-36.793h31.167c32.884 0 40.757-3.554 40.757-18.397 0-4.722-2.158-10.793-4.795-13.491-6.612-6.765-95.679-6.765-102.291 0z" />
<glyph unicode="&#xe90f;" glyph-name="wechat" horiz-adv-x="1234" d="M700.28 896.125c-72.094 40.221-158.16 63.903-249.758 63.903-63.238 0-123.84-11.288-179.9-31.958l3.604 1.163c-93.961-33.117-170.987-94.684-222.702-174.222l-1.026-1.683c-31.489-49.59-50.182-109.994-50.182-174.763 0-27.709 3.421-54.619 9.864-80.33l-0.482 2.271c26.158-96.013 85.952-175.172 165.647-225.809l1.564-0.929c-15.049-43.809-29.764-87.619-43.809-131.428 50.498 26.085 100.327 53.508 150.824 80.261 51.335-17.119 110.438-26.995 171.848-26.995 5.778 0 11.535 0.087 17.271 0.261l-0.84-0.020c-10.679 30.596-16.847 65.866-16.847 102.577 0 17.385 1.383 34.447 4.046 51.082l-0.242-1.831c13.84 73.192 50.584 136.132 102.369 182.665l0.299 0.264c78.257 69.185 181.74 111.426 295.089 111.426 13.847 0 27.547-0.63 41.073-1.864l-1.74 0.128c-26.331 111.58-97.952 202.795-193.919 254.815l-2.053 1.018zM356.494 695.472c-7.641-26.929-32.010-46.324-60.91-46.324-34.908 0-63.206 28.298-63.206 63.206 0 27.122 17.083 50.254 41.077 59.224l0.436 0.143c6.182 2.206 13.313 3.481 20.743 3.481 35.092 0 63.54-28.448 63.54-63.54 0-5.15-0.613-10.156-1.769-14.951l0.088 0.434zM668.844 709.518c-1.4-33.799-29.139-60.669-63.155-60.669-34.908 0-63.206 28.298-63.206 63.206 0 27.086 17.038 50.193 40.982 59.188l0.436 0.144c6.478 2.454 13.967 3.874 21.788 3.874 34.908 0 63.206-28.298 63.206-63.206 0-0.892-0.018-1.78-0.055-2.663l0.004 0.126zM1210.607 409.541c-33.752 70.899-88.995 127.006-157.202 160.967l-1.983 0.893c-56.7 28.736-123.62 45.567-194.47 45.567-72.163 0-140.248-17.461-200.26-48.389l2.453 1.149c-85.945-42.319-149.454-119.081-173.079-211.782l-0.486-2.248c-4.25-18.142-6.686-38.972-6.686-60.372 0-52.975 14.93-102.462 40.812-144.485l-0.684 1.193c57.173-87.684 147.952-149.365 253.645-166.911l2.188-0.3c24.331-4.483 52.329-7.047 80.926-7.047 50.775 0 99.662 8.083 145.445 23.031l-3.311-0.935c43.14-17.056 81.599-44.144 123.736-64.209-10.702 36.118-22.406 72.235-33.442 108.018 48.494 32.594 87.597 75.549 114.789 125.884l0.921 1.865c19.361 36.7 30.726 80.208 30.726 126.369 0 40.455-8.728 78.872-24.405 113.47l0.702-1.73zM789.236 382.453c-7.434-19.215-25.763-32.594-47.217-32.594-27.889 0-50.498 22.609-50.498 50.498 0 21.546 13.494 39.94 32.491 47.193l0.346 0.116c4.933 1.742 10.622 2.749 16.546 2.749 28.259 0 51.167-22.908 51.167-51.167 0-6.017-1.038-11.791-2.946-17.153l0.111 0.358zM1035.705 377.771c-8.605-16.565-25.632-27.685-45.256-27.685-13.576 0-25.909 5.322-35.027 13.994l0.021-0.020c-9.215 10.217-15.901 22.89-18.964 36.918l-0.098 0.537c3.422 25.247 23.002 45.054 47.844 48.787l0.313 0.039c1.926 0.259 4.153 0.406 6.414 0.406 28.074 0 50.832-22.758 50.832-50.832 0-8.056-1.874-15.674-5.209-22.442l0.133 0.298z" />
<glyph unicode="&#xe910;" glyph-name="whats-app" horiz-adv-x="1019" d="M0-64l71.969 262.901c-42.503 72.619-67.6 159.9-67.6 253.042 0 280.229 227.17 507.399 507.399 507.399s507.399-227.17 507.399-507.399c0-280.148-227.039-507.267-507.155-507.399h-0.012c-89.096 0.332-172.726 23.428-245.469 63.769l2.614-1.33zM281.633 98.341l14.131-9.202c61.333-36.96 135.383-58.824 214.54-58.824 0.019 0 0.037 0 0.056 0h-0.003c232.849 0.253 421.512 189.072 421.512 421.956 0 233.040-188.916 421.956-421.956 421.956s-421.956-188.916-421.956-421.956c0-83.347 24.165-161.050 65.872-226.485l-1.016 1.705 9.859-16.103-40.75-154.783zM385.15 664.236c-9.53 21.032-19.718 21.361-28.591 21.689h-24.318c-13.11-0.665-24.714-6.607-32.821-15.726l-0.042-0.048c-27.931-25.946-45.352-62.877-45.352-103.876 0-0.22 0.001-0.441 0.002-0.661v0.034c4.315-50.174 23.051-95.285 51.992-131.973l-0.397 0.522c6.573-8.544 87.743-140.652 216.893-191.589 107.132-42.393 128.822-32.863 152.154-32.863 36.604 7.171 67 29.271 85.122 59.561l0.32 0.578c5.766 12.49 9.129 27.105 9.129 42.505 0 6.348-0.571 12.562-1.665 18.594l0.095-0.631c-3.286 5.258-11.831 8.216-24.318 14.788s-74.927 38.121-86.1 42.393-20.046 6.573-28.591-6.244c-13.384-18.518-26.533-34.692-40.515-50.095l0.423 0.473c-7.558-8.544-14.788-9.53-27.605-3.286-38.838 15.923-72.23 37.081-101.216 63.056l0.327-0.288c-27.268 25.375-50.699 54.351-69.672 86.285l-0.983 1.786c-7.23 12.488 0 19.389 5.587 25.633s12.816 15.117 19.060 22.347c4.959 6.078 9.249 13.001 12.582 20.447l0.234 0.585c1.739 3.239 2.761 7.087 2.761 11.173s-1.022 7.934-2.824 11.302l0.063-0.129c-3.286 6.244-27.933 69.012-39.107 94.316z" />
<glyph unicode="&#xe911;" glyph-name="arrow-right" horiz-adv-x="512" d="M0-64v1024l511.674-511.674-511.674-512.326z" />
<glyph unicode="&#xe912;" glyph-name="cart01" horiz-adv-x="1106" d="M642.646 130.626c53.745 0 97.313-43.569 97.313-97.313s-43.569-97.313-97.313-97.313c-53.745 0-97.313 43.569-97.313 97.313v0c0 53.745 43.569 97.313 97.313 97.313v0zM642.646-9.656c0.188-0.003 0.41-0.005 0.632-0.005 23.731 0 42.969 19.238 42.969 42.969s-19.238 42.969-42.969 42.969c-23.73 0-42.967-19.235-42.969-42.965v0c0-23.731 19.238-42.969 42.969-42.969v0zM301.102 130.626c53.745 0 97.313-43.569 97.313-97.313s-43.569-97.313-97.313-97.313c-53.745 0-97.313 43.569-97.313 97.313v0c0 53.745 43.569 97.313 97.313 97.313v0zM301.102-9.656c23.731 0 42.969 19.238 42.969 42.969s-19.238 42.969-42.969 42.969c-23.731 0-42.969-19.238-42.969-42.969v0c0.178-23.66 19.31-42.792 42.953-42.969h0.017zM277.406 644.048h389.253c15.007 0 27.172-12.165 27.172-27.172s-12.165-27.172-27.172-27.172v0h-389.253c-15.007 0-27.172 12.165-27.172 27.172s12.165 27.172 27.172 27.172v0zM298.575 501.87h347.547c15.007 0 27.172-12.165 27.172-27.172s-12.165-27.172-27.172-27.172h-347.547c-15.007 0-27.172 12.165-27.172 27.172s12.165 27.172 27.172 27.172v0zM12.322 764.11c9.984 12.188 25.035 19.905 41.888 19.905 0.047 0 0.094 0 0.14 0h846.428l17.061 83.095c3.562 17.638 15.426 31.9 31.249 38.729l0.346 0.133 119.114 51.816c3.557 1.859 7.769 2.949 12.235 2.949 11.347 0 21.050-7.037 24.984-16.985l0.063-0.182c1.431-3.198 2.264-6.932 2.264-10.859 0-11.023-6.563-20.512-15.995-24.774l-0.171-0.069-121.010-51.816-131.436-637.907c-5.17-24.981-26.948-43.506-53.069-43.601h-650.871c-15.007 0-27.172 12.165-27.172 27.172s12.165 27.172 27.172 27.172h650.861l15.798 77.724h-671.714c-26.131 0.033-47.964 18.398-53.33 42.924l-0.066 0.362-77.092 369.032c-0.611 3.024-0.961 6.499-0.961 10.057 0 13.495 5.036 25.814 13.332 35.18l-0.048-0.056zM130.488 359.691h683.088l76.144 369.98h-835.377z" />
<glyph unicode="&#xe913;" glyph-name="search01" horiz-adv-x="1004" d="M0 45.33l308.19 330.573c-17.84 27.733-32.528 59.758-42.401 93.83l-0.642 2.587c-8.808 28.55-14.531 61.541-15.902 95.654l-0.024 0.763c-0.141 3.86-0.221 8.394-0.221 12.948 0 169.571 111.301 313.147 264.834 361.658l2.686 0.732c28.332 8.956 61.041 14.69 94.901 15.907l0.655 0.019c4.564 0.197 9.917 0.309 15.297 0.309 170.156 0 314.106-112.197 361.908-266.646l0.715-2.683c8.897-28.646 14.49-61.686 15.483-95.879l0.012-0.538c0.139-3.837 0.219-8.345 0.219-12.872 0-169.964-111.945-313.783-266.125-361.746l-2.684-0.719c-28.55-8.808-61.541-14.531-95.654-15.902l-0.763-0.024c-3.477-0.115-7.565-0.18-11.668-0.18-75.587 0-145.985 22.216-205.021 60.474l1.472-0.894-307.76-326.699zM635.319 299.716c151.347 4.663 272.262 128.47 272.262 280.517 0 3.98-0.083 7.94-0.247 11.88l0.019-0.564c-11.68 146.029-133.061 260.108-281.087 260.108-154.693 0-280.287-124.586-281.918-278.893l-0.001-0.154c0.747-25.91 5.1-50.533 12.573-73.756l-0.521 1.874c36.157-116.884 143.266-200.326 269.864-200.326 3.488 0 6.96 0.063 10.417 0.189l-0.5-0.014z" />
<glyph unicode="&#xe914;" glyph-name="around" d="M1021.083 448c-0.005-282.766-229.233-511.992-512-511.992-282.77 0-512 229.23-512 512s229.23 512 512 512c1.026 0 2.050-0.003 3.074-0.009l-0.157 0.001c281.513-1.656 509.083-230.248 509.083-511.992 0-0.003 0-0.006 0-0.009v0.001z" />
<glyph unicode="&#xe915;" glyph-name="prev" horiz-adv-x="1437" d="M10.478 422.007l475.529-475.529c6.558-6.53 15.602-10.567 25.59-10.567s19.032 4.037 25.591 10.568l-0.001-0.001c6.776 7.193 10.939 16.913 10.939 27.605s-4.164 20.411-10.958 27.625l0.019-0.020-405.812 409.842h1264.989c22.257 0 40.299 18.043 40.299 40.299s-18.043 40.299-40.299 40.299v0h-1272.645l413.469 409.036c6.521 6.183 10.579 14.909 10.579 24.582s-4.058 18.399-10.564 24.568l-0.015 0.014c-6.641 6.343-15.66 10.247-25.59 10.247s-18.949-3.904-25.604-10.261l0.014 0.014-475.529-477.141c-6.53-6.558-10.567-15.602-10.567-25.59s4.037-19.032 10.568-25.591l-0.001 0.001z" />
<glyph unicode="&#xe916;" glyph-name="next" horiz-adv-x="1438" d="M1427.467 473.418l-475.688 476.091c-6.69 7.613-16.447 12.392-27.32 12.392-20.055 0-36.312-16.257-36.312-36.312 0-10.873 4.779-20.63 12.351-27.285l0.041-0.035 406.292-406.292h-1266.484c-22.283 0-40.347-18.064-40.347-40.347s18.064-40.347 40.347-40.347v0h1273.746l-413.554-413.554c-5.584-6.353-8.992-14.739-8.992-23.92 0-20.055 16.257-36.312 36.312-36.312 9.181 0 17.567 3.408 23.961 9.027l-0.041-0.035 475.688 475.688c6.738 6.472 10.924 15.557 10.924 25.62s-4.186 19.148-10.912 25.609l-0.012 0.011z" />
<glyph unicode="&#xe917;" glyph-name="arrow-bottom01" horiz-adv-x="1648" d="M0 960h1648.29l-815.903-1021.94-832.386 1021.94z" />
<glyph unicode="&#xe918;" glyph-name="instagram" d="M298.667 896c-70.699 0-134.741-28.715-181.035-74.965s-74.965-110.336-74.965-181.035v-426.667c0-70.699 28.715-134.741 74.965-181.035s110.336-74.965 181.035-74.965h426.667c70.699 0 134.741 28.715 181.035 74.965s74.965 110.336 74.965 181.035v426.667c0 70.699-28.715 134.741-74.965 181.035s-110.336 74.965-181.035 74.965zM298.667 810.667h426.667c47.147 0 89.728-19.072 120.661-50.005s50.005-73.515 50.005-120.661v-426.667c0-47.147-19.072-89.728-50.005-120.661s-73.515-50.005-120.661-50.005h-426.667c-47.147 0-89.728 19.072-120.661 50.005s-50.005 73.515-50.005 120.661v426.667c0 47.147 19.072 89.728 50.005 120.661s73.515 50.005 120.661 50.005zM724.864 459.819c-6.4 41.472-24.363 79.232-50.944 109.525-32.171 36.736-76.971 62.507-128.384 70.144-19.797 3.157-41.387 3.285-63.019 0.085-58.283-8.619-107.563-40.149-140.032-83.925s-48.341-100.139-39.68-158.379 40.149-107.563 83.925-140.032 100.139-48.341 158.379-39.68 107.563 40.149 140.032 83.925 48.341 100.139 39.68 158.379zM640.469 447.275c5.205-34.987-4.267-68.651-23.808-95.019s-49.067-45.184-84.011-50.347-68.651 4.267-95.019 23.808-45.184 49.067-50.347 84.011 4.267 68.651 23.808 95.019 49.067 45.184 84.011 50.347c13.355 1.963 26.24 1.792 37.12 0.085 31.573-4.693 58.283-20.053 77.568-42.069 16-18.261 26.88-41.088 30.72-65.835zM789.333 661.334c0 23.552-19.115 42.667-42.667 42.667s-42.667-19.115-42.667-42.667 19.115-42.667 42.667-42.667 42.667 19.115 42.667 42.667z" />
</font>
</defs>
</svg>
